<svg xmlns="http://www.w3.org/2000/svg" xmlns:xlink="http://www.w3.org/1999/xlink" width="500" zoomAndPan="magnify" viewBox="0 0 375 374.999991" height="500" preserveAspectRatio="xMidYMid meet" version="1.0"><rect x="-37.5" width="450" fill="#ffffff" y="-37.499999" height="449.999989" fill-opacity="1"/><rect x="-37.5" width="450" fill="#ffffff" y="-37.499999" height="449.999989" fill-opacity="1"/><path fill="#000000" d="M 122.921875 256.253906 L 125.355469 258.660156 L 125.597656 258.90625 C 133.171875 266.746094 133.089844 279.375 125.355469 287.109375 C 117.621094 294.84375 104.992188 294.925781 97.148438 287.351562 L 96.90625 287.109375 L 94.472656 284.703125 L 87.847656 278.050781 C 80.03125 270.234375 80.03125 257.445312 87.847656 249.601562 C 95.664062 241.785156 108.480469 241.785156 116.296875 249.601562 Z M 257.105469 146.191406 L 259.457031 143.839844 L 262.164062 141.136719 L 286.960938 116.335938 C 294.777344 108.523438 294.777344 95.730469 286.960938 87.890625 C 279.117188 80.074219 266.328125 80.074219 258.511719 87.890625 L 231.011719 115.390625 L 228.65625 117.742188 L 214.433594 131.96875 C 206.617188 139.78125 206.617188 152.574219 214.433594 160.417969 L 228.65625 174.640625 L 231.199219 177.15625 L 258.703125 204.65625 C 266.515625 212.472656 279.308594 212.472656 287.148438 204.65625 C 294.964844 196.84375 294.964844 184.023438 287.148438 176.210938 L 259.648438 148.707031 Z M 88.984375 88.078125 L 88.984375 88.050781 C 96.796875 80.234375 109.617188 80.234375 117.433594 88.050781 L 286.769531 257.417969 C 294.613281 265.234375 294.613281 278.050781 286.769531 285.867188 C 278.957031 293.679688 266.164062 293.679688 258.324219 285.867188 L 88.984375 116.5 C 81.167969 108.683594 81.167969 95.894531 88.984375 88.078125 Z M 88.738281 169.152344 C 96.554688 161.335938 109.347656 161.335938 117.1875 169.152344 L 178.195312 230.160156 L 205.699219 257.660156 C 213.511719 265.476562 213.511719 278.292969 205.699219 286.109375 C 197.855469 293.925781 185.066406 293.925781 177.25 286.109375 L 149.746094 258.605469 L 108.019531 216.882812 L 88.738281 197.601562 C 80.925781 189.785156 80.925781 176.964844 88.738281 169.152344 Z M 88.738281 169.152344 " fill-opacity="1" fill-rule="evenodd"/></svg>