<svg xmlns="http://www.w3.org/2000/svg" xmlns:xlink="http://www.w3.org/1999/xlink" width="500" zoomAndPan="magnify" viewBox="0 0 375 374.999991" height="500" preserveAspectRatio="xMidYMid meet" version="1.0"><defs><g/><clipPath id="7d5652de57"><path d="M 96.644531 168.355469 L 134.894531 168.355469 L 134.894531 206.605469 L 96.644531 206.605469 Z M 96.644531 168.355469 " clip-rule="nonzero"/></clipPath></defs><rect x="-37.5" width="450" fill="#ffffff" y="-37.499999" height="449.999989" fill-opacity="1"/><rect x="-37.5" width="450" fill="#ffffff" y="-37.499999" height="449.999989" fill-opacity="1"/><g clip-path="url(#7d5652de57)"><path fill="#000000" d="M 104.277344 199.726562 L 104.710938 200.15625 L 104.753906 200.199219 C 106.097656 201.59375 106.085938 203.839844 104.710938 205.214844 C 103.332031 206.59375 101.085938 206.605469 99.691406 205.257812 L 99.648438 205.214844 L 99.214844 204.789062 L 98.039062 203.605469 C 96.648438 202.214844 96.648438 199.941406 98.039062 198.546875 C 99.429688 197.15625 101.707031 197.15625 103.097656 198.546875 Z M 128.144531 180.152344 L 129.042969 179.253906 L 133.453125 174.839844 C 134.84375 173.453125 134.84375 171.175781 133.453125 169.78125 C 132.058594 168.390625 129.78125 168.390625 128.394531 169.78125 L 123.980469 174.191406 L 123.5 174.671875 L 123.082031 175.09375 L 120.554688 177.621094 C 119.164062 179.011719 119.164062 181.285156 120.554688 182.683594 L 123.082031 185.210938 L 123.535156 185.660156 L 128.425781 190.550781 C 129.816406 191.941406 132.09375 191.941406 133.488281 190.550781 C 134.875 189.160156 134.875 186.882812 133.488281 185.492188 L 128.59375 180.597656 Z M 98.238281 169.816406 L 98.238281 169.8125 C 99.628906 168.421875 101.910156 168.421875 103.300781 169.8125 L 133.417969 199.933594 C 134.8125 201.324219 134.8125 203.605469 133.417969 204.996094 C 132.03125 206.386719 129.753906 206.386719 128.359375 204.996094 L 98.238281 174.871094 C 96.851562 173.480469 96.851562 171.207031 98.238281 169.816406 Z M 98.195312 184.234375 C 99.585938 182.84375 101.863281 182.84375 103.257812 184.234375 L 119 199.976562 C 120.390625 201.367188 120.390625 203.648438 119 205.039062 C 117.605469 206.429688 115.328125 206.429688 113.9375 205.039062 L 98.195312 189.296875 C 96.804688 187.90625 96.804688 185.625 98.195312 184.234375 Z M 98.195312 184.234375 " fill-opacity="1" fill-rule="evenodd"/></g><g fill="#000000" fill-opacity="1"><g transform="translate(150.639854, 196.861934)"><g><path d="M 12.203125 0.375 C 9.960938 0.375 8.039062 -0.101562 6.4375 -1.0625 C 4.832031 -2.019531 3.59375 -3.359375 2.71875 -5.078125 C 1.851562 -6.804688 1.421875 -8.800781 1.421875 -11.0625 C 1.421875 -13.320312 1.851562 -15.316406 2.71875 -17.046875 C 3.59375 -18.773438 4.832031 -20.125 6.4375 -21.09375 C 8.039062 -22.070312 9.960938 -22.5625 12.203125 -22.5625 C 14.859375 -22.5625 17.035156 -21.898438 18.734375 -20.578125 C 20.441406 -19.253906 21.503906 -17.398438 21.921875 -15.015625 L 17.453125 -15.015625 C 17.179688 -16.222656 16.597656 -17.171875 15.703125 -17.859375 C 14.804688 -18.546875 13.617188 -18.890625 12.140625 -18.890625 C 10.085938 -18.890625 8.476562 -18.191406 7.3125 -16.796875 C 6.15625 -15.398438 5.578125 -13.488281 5.578125 -11.0625 C 5.578125 -8.632812 6.15625 -6.726562 7.3125 -5.34375 C 8.476562 -3.957031 10.085938 -3.265625 12.140625 -3.265625 C 13.617188 -3.265625 14.804688 -3.585938 15.703125 -4.234375 C 16.597656 -4.878906 17.179688 -5.769531 17.453125 -6.90625 L 21.921875 -6.90625 C 21.503906 -4.625 20.441406 -2.835938 18.734375 -1.546875 C 17.035156 -0.265625 14.859375 0.375 12.203125 0.375 Z M 12.203125 0.375 "/></g></g></g><g fill="#000000" fill-opacity="1"><g transform="translate(178.896031, 196.861934)"><g><path d="M 2.15625 0 L 2.15625 -22.1875 L 6.203125 -22.1875 L 6.203125 -12.953125 L 16.15625 -12.953125 L 16.15625 -22.1875 L 20.21875 -22.1875 L 20.21875 0 L 16.15625 0 L 16.15625 -9.671875 L 6.203125 -9.671875 L 6.203125 0 Z M 2.15625 0 "/></g></g></g><g fill="#000000" fill-opacity="1"><g transform="translate(206.170308, 196.861934)"><g><path d="M 10.703125 0.375 C 9.078125 0.375 7.609375 0.0546875 6.296875 -0.578125 C 4.992188 -1.222656 3.957031 -2.203125 3.1875 -3.515625 C 2.414062 -4.828125 2.03125 -6.488281 2.03125 -8.5 L 2.03125 -22.1875 L 6.078125 -22.1875 L 6.078125 -8.453125 C 6.078125 -6.722656 6.492188 -5.4375 7.328125 -4.59375 C 8.171875 -3.75 9.332031 -3.328125 10.8125 -3.328125 C 12.257812 -3.328125 13.40625 -3.75 14.25 -4.59375 C 15.101562 -5.4375 15.53125 -6.722656 15.53125 -8.453125 L 15.53125 -22.1875 L 19.578125 -22.1875 L 19.578125 -8.5 C 19.578125 -6.488281 19.175781 -4.828125 18.375 -3.515625 C 17.570312 -2.203125 16.5 -1.222656 15.15625 -0.578125 C 13.820312 0.0546875 12.335938 0.375 10.703125 0.375 Z M 10.703125 0.375 "/></g></g></g><g fill="#000000" fill-opacity="1"><g transform="translate(232.652743, 196.861934)"><g><path d="M 2.15625 0 L 2.15625 -22.1875 L 6.203125 -22.1875 L 16.640625 -6.5625 L 16.640625 -22.1875 L 20.6875 -22.1875 L 20.6875 0 L 16.640625 0 L 6.203125 -15.59375 L 6.203125 0 Z M 2.15625 0 "/></g></g></g><g fill="#000000" fill-opacity="1"><g transform="translate(260.402134, 196.861934)"><g><path d="M 7.3125 0 L 7.3125 -18.921875 L 0.859375 -18.921875 L 0.859375 -22.1875 L 17.875 -22.1875 L 17.875 -18.921875 L 11.375 -18.921875 L 11.375 0 Z M 7.3125 0 "/></g></g></g></svg>