<svg xmlns="http://www.w3.org/2000/svg" xmlns:xlink="http://www.w3.org/1999/xlink" width="500" zoomAndPan="magnify" viewBox="0 0 375 374.999991" height="500" preserveAspectRatio="xMidYMid meet" version="1.0"><defs><g/></defs><rect x="-37.5" width="450" fill="#ffffff" y="-37.499999" height="449.999989" fill-opacity="1"/><rect x="-37.5" width="450" fill="#ffffff" y="-37.499999" height="449.999989" fill-opacity="1"/><path fill="#000000" d="M 143.890625 212.832031 L 145.535156 214.457031 L 145.699219 214.621094 C 150.8125 219.917969 150.757812 228.445312 145.535156 233.667969 C 140.3125 238.886719 131.785156 238.945312 126.488281 233.832031 L 126.324219 233.667969 L 124.683594 232.042969 L 120.207031 227.550781 C 114.929688 222.273438 114.929688 213.632812 120.207031 208.339844 C 125.484375 203.0625 134.140625 203.0625 139.417969 208.339844 Z M 234.5 138.511719 L 254.660156 118.351562 C 259.9375 113.074219 259.9375 104.4375 254.660156 99.140625 C 249.363281 93.867188 240.726562 93.867188 235.449219 99.140625 L 218.703125 115.886719 L 216.878906 117.714844 L 215.289062 119.300781 L 205.683594 128.90625 C 200.40625 134.183594 200.40625 142.820312 205.683594 148.117188 L 215.289062 157.722656 L 217.007812 159.417969 L 235.578125 177.992188 C 240.855469 183.269531 249.492188 183.269531 254.785156 177.992188 C 260.0625 172.714844 260.0625 164.058594 254.785156 158.78125 L 236.214844 140.210938 Z M 120.976562 99.269531 L 120.976562 99.253906 C 126.253906 93.976562 134.90625 93.976562 140.183594 99.253906 L 254.53125 213.617188 C 259.828125 218.894531 259.828125 227.550781 254.53125 232.828125 C 249.253906 238.101562 240.617188 238.101562 235.320312 232.828125 L 120.976562 118.460938 C 115.699219 113.183594 115.699219 104.546875 120.976562 99.269531 Z M 120.8125 154.015625 C 126.089844 148.738281 134.726562 148.738281 140.019531 154.015625 L 199.785156 213.78125 C 205.0625 219.058594 205.0625 227.714844 199.785156 232.992188 C 194.492188 238.269531 185.855469 238.269531 180.578125 232.992188 L 162.007812 214.417969 L 133.832031 186.246094 L 120.8125 173.222656 C 115.535156 167.949219 115.535156 159.292969 120.8125 154.015625 Z M 120.8125 154.015625 " fill-opacity="1" fill-rule="evenodd"/><g fill="#000000" fill-opacity="1"><g transform="translate(117.602838, 282.19596)"><g><path d="M 13.265625 0.40625 C 10.828125 0.40625 8.734375 -0.113281 6.984375 -1.15625 C 5.242188 -2.195312 3.898438 -3.65625 2.953125 -5.53125 C 2.015625 -7.40625 1.546875 -9.570312 1.546875 -12.03125 C 1.546875 -14.488281 2.015625 -16.660156 2.953125 -18.546875 C 3.898438 -20.429688 5.242188 -21.898438 6.984375 -22.953125 C 8.734375 -24.015625 10.828125 -24.546875 13.265625 -24.546875 C 16.160156 -24.546875 18.53125 -23.828125 20.375 -22.390625 C 22.226562 -20.953125 23.390625 -18.9375 23.859375 -16.34375 L 19 -16.34375 C 18.695312 -17.644531 18.054688 -18.671875 17.078125 -19.421875 C 16.097656 -20.171875 14.804688 -20.546875 13.203125 -20.546875 C 10.972656 -20.546875 9.222656 -19.785156 7.953125 -18.265625 C 6.691406 -16.753906 6.0625 -14.675781 6.0625 -12.03125 C 6.0625 -9.382812 6.691406 -7.304688 7.953125 -5.796875 C 9.222656 -4.296875 10.972656 -3.546875 13.203125 -3.546875 C 14.804688 -3.546875 16.097656 -3.894531 17.078125 -4.59375 C 18.054688 -5.300781 18.695312 -6.273438 19 -7.515625 L 23.859375 -7.515625 C 23.390625 -5.035156 22.226562 -3.09375 20.375 -1.6875 C 18.53125 -0.289062 16.160156 0.40625 13.265625 0.40625 Z M 13.265625 0.40625 "/></g></g></g><g fill="#000000" fill-opacity="1"><g transform="translate(148.338448, 282.19596)"><g><path d="M 2.34375 0 L 2.34375 -24.125 L 6.75 -24.125 L 6.75 -14.09375 L 17.578125 -14.09375 L 17.578125 -24.125 L 21.984375 -24.125 L 21.984375 0 L 17.578125 0 L 17.578125 -10.515625 L 6.75 -10.515625 L 6.75 0 Z M 2.34375 0 "/></g></g></g><g fill="#000000" fill-opacity="1"><g transform="translate(178.005996, 282.19596)"><g><path d="M 11.65625 0.40625 C 9.882812 0.40625 8.285156 0.0546875 6.859375 -0.640625 C 5.429688 -1.335938 4.296875 -2.398438 3.453125 -3.828125 C 2.617188 -5.253906 2.203125 -7.054688 2.203125 -9.234375 L 2.203125 -24.125 L 6.625 -24.125 L 6.625 -9.203125 C 6.625 -7.316406 7.078125 -5.914062 7.984375 -5 C 8.890625 -4.082031 10.144531 -3.625 11.75 -3.625 C 13.332031 -3.625 14.582031 -4.082031 15.5 -5 C 16.425781 -5.914062 16.890625 -7.316406 16.890625 -9.203125 L 16.890625 -24.125 L 21.296875 -24.125 L 21.296875 -9.234375 C 21.296875 -7.054688 20.859375 -5.253906 19.984375 -3.828125 C 19.117188 -2.398438 17.953125 -1.335938 16.484375 -0.640625 C 15.023438 0.0546875 13.414062 0.40625 11.65625 0.40625 Z M 11.65625 0.40625 "/></g></g></g><g fill="#000000" fill-opacity="1"><g transform="translate(206.81222, 282.19596)"><g><path d="M 2.34375 0 L 2.34375 -24.125 L 6.75 -24.125 L 18.09375 -7.140625 L 18.09375 -24.125 L 22.515625 -24.125 L 22.515625 0 L 18.09375 0 L 6.75 -16.953125 L 6.75 0 Z M 2.34375 0 "/></g></g></g><g fill="#000000" fill-opacity="1"><g transform="translate(236.996574, 282.19596)"><g><path d="M 7.96875 0 L 7.96875 -20.578125 L 0.9375 -20.578125 L 0.9375 -24.125 L 19.4375 -24.125 L 19.4375 -20.578125 L 12.375 -20.578125 L 12.375 0 Z M 7.96875 0 "/></g></g></g></svg>